<?xml version="1.0" encoding="UTF-8"?>
<svg xmlns="http://www.w3.org/2000/svg" xmlns:xlink="http://www.w3.org/1999/xlink" width="24px" height="24px" viewBox="0 0 24 23" version="1.1">
<g id="surface1">
<path style=" stroke:none;fill-rule:nonzero;fill:rgb(0%,0%,0%);fill-opacity:1;" d="M 16.859375 0.464844 C 16.210938 0.570312 15.695312 0.964844 15.371094 1.609375 C 15.089844 2.15625 15.023438 2.535156 15.023438 3.554688 C 15.023438 4.25 15.042969 4.464844 15.121094 4.765625 C 15.253906 5.28125 15.46875 5.667969 15.789062 5.976562 C 16.253906 6.429688 16.902344 6.640625 17.53125 6.546875 C 17.878906 6.492188 17.789062 6.445312 18.570312 7.101562 L 19.054688 7.507812 L 19.339844 7.273438 C 19.785156 6.898438 19.800781 6.964844 19.210938 6.480469 L 18.679688 6.050781 L 18.863281 5.855469 C 19.078125 5.617188 19.304688 5.183594 19.421875 4.785156 C 19.550781 4.351562 19.550781 2.800781 19.425781 2.285156 C 19.210938 1.414062 18.632812 0.730469 17.9375 0.527344 C 17.640625 0.441406 17.15625 0.414062 16.859375 0.464844 Z M 17.867188 1.449219 C 18.109375 1.613281 18.359375 2.046875 18.433594 2.433594 C 18.507812 2.832031 18.488281 4.34375 18.402344 4.691406 C 18.265625 5.257812 17.945312 5.613281 17.492188 5.707031 C 17.019531 5.808594 16.589844 5.625 16.339844 5.222656 C 16.136719 4.886719 16.074219 4.585938 16.046875 3.796875 C 16 2.402344 16.191406 1.710938 16.722656 1.398438 C 16.894531 1.296875 16.964844 1.285156 17.289062 1.296875 C 17.605469 1.3125 17.683594 1.328125 17.867188 1.449219 Z M 17.867188 1.449219 "/>
<path style=" stroke:none;fill-rule:nonzero;fill:rgb(0%,0%,0%);fill-opacity:1;" d="M 4.65625 3.496094 L 4.65625 6.484375 L 5.710938 6.484375 L 5.722656 4.457031 L 5.734375 2.425781 L 6.738281 4.457031 L 7.738281 6.484375 L 8.785156 6.484375 L 8.785156 0.507812 L 7.726562 0.507812 L 7.71875 2.535156 L 7.703125 4.566406 L 6.699219 2.535156 L 5.699219 0.507812 L 4.65625 0.507812 Z M 4.65625 3.496094 "/>
<path style=" stroke:none;fill-rule:nonzero;fill:rgb(0%,0%,0%);fill-opacity:1;" d="M 10.128906 3.496094 L 10.128906 6.484375 L 14.113281 6.484375 L 14.113281 5.703125 L 11.136719 5.703125 L 11.136719 0.507812 L 10.128906 0.507812 Z M 10.128906 3.496094 "/>
<path style=" stroke:none;fill-rule:nonzero;fill:rgb(0%,0%,0%);fill-opacity:1;" d="M 7.585938 9.246094 L 7.585938 10.992188 L 6.695312 10.992188 C 6.144531 10.992188 5.808594 11.011719 5.808594 11.039062 C 5.808594 11.113281 8.433594 14.5 8.480469 14.480469 C 8.535156 14.460938 11.136719 11.085938 11.136719 11.035156 C 11.136719 11.011719 10.726562 10.992188 10.222656 10.992188 L 9.3125 10.992188 L 9.3125 7.496094 L 7.585938 7.496094 Z M 7.585938 9.246094 "/>
<path style=" stroke:none;fill-rule:nonzero;fill:rgb(0%,0%,0%);fill-opacity:1;" d="M 14.21875 9.246094 C 13.496094 10.179688 12.898438 10.976562 12.882812 11.015625 C 12.859375 11.078125 12.96875 11.085938 13.769531 11.085938 L 14.6875 11.085938 L 14.6875 14.582031 L 16.414062 14.582031 L 16.414062 11.085938 L 17.304688 11.085938 C 17.855469 11.085938 18.191406 11.066406 18.191406 11.039062 C 18.191406 11.007812 15.699219 7.734375 15.558594 7.582031 C 15.542969 7.5625 14.9375 8.3125 14.21875 9.246094 Z M 14.21875 9.246094 "/>
<path style=" stroke:none;fill-rule:nonzero;fill:rgb(0%,0%,0%);fill-opacity:1;" d="M 6.113281 15.613281 C 5.488281 15.75 4.929688 16.136719 4.703125 16.59375 C 4.535156 16.921875 4.515625 17.421875 4.660156 17.777344 C 4.882812 18.34375 5.476562 18.757812 6.589844 19.113281 C 7.347656 19.351562 7.535156 19.453125 7.746094 19.753906 C 7.886719 19.945312 7.921875 20.296875 7.820312 20.484375 C 7.570312 20.945312 6.910156 21.140625 6.246094 20.949219 C 5.808594 20.824219 5.425781 20.382812 5.425781 20 C 5.425781 19.925781 5.375 19.917969 4.894531 19.917969 L 4.367188 19.917969 L 4.367188 20.046875 C 4.367188 20.238281 4.503906 20.644531 4.636719 20.84375 C 5.117188 21.578125 6.222656 21.96875 7.28125 21.789062 C 7.820312 21.695312 8.242188 21.496094 8.53125 21.191406 C 8.816406 20.886719 8.929688 20.597656 8.929688 20.160156 C 8.929688 19.675781 8.796875 19.375 8.425781 19.015625 C 8.074219 18.683594 7.632812 18.460938 6.78125 18.191406 C 5.984375 17.945312 5.671875 17.710938 5.628906 17.320312 C 5.558594 16.734375 6.105469 16.320312 6.867188 16.390625 C 7.382812 16.429688 7.722656 16.714844 7.851562 17.203125 L 7.90625 17.410156 L 8.425781 17.425781 L 8.941406 17.4375 L 8.914062 17.1875 C 8.839844 16.519531 8.320312 15.9375 7.558594 15.6875 C 7.1875 15.5625 6.511719 15.523438 6.113281 15.613281 Z M 6.113281 15.613281 "/>
<path style=" stroke:none;fill-rule:nonzero;fill:rgb(0%,0%,0%);fill-opacity:1;" d="M 11.449219 15.613281 C 10.675781 15.792969 10.074219 16.441406 9.804688 17.386719 C 9.675781 17.828125 9.679688 19.625 9.804688 20.054688 C 10.023438 20.773438 10.496094 21.378906 11.050781 21.636719 C 11.414062 21.808594 11.898438 21.878906 12.292969 21.816406 L 12.601562 21.765625 L 13.074219 22.167969 C 13.335938 22.382812 13.617188 22.617188 13.699219 22.6875 L 13.851562 22.808594 L 14.199219 22.503906 L 14.542969 22.195312 L 14.0625 21.808594 C 13.800781 21.59375 13.554688 21.390625 13.53125 21.359375 C 13.492188 21.316406 13.523438 21.253906 13.640625 21.113281 C 14.199219 20.492188 14.441406 19.394531 14.308594 18.101562 C 14.246094 17.488281 14.160156 17.144531 13.953125 16.742188 C 13.78125 16.398438 13.324219 15.933594 13.023438 15.78125 C 12.5625 15.5625 11.957031 15.492188 11.449219 15.613281 Z M 12.476562 16.507812 C 12.839844 16.6875 13.09375 17.078125 13.195312 17.597656 C 13.277344 18.007812 13.261719 19.558594 13.175781 19.910156 C 13.054688 20.386719 12.820312 20.71875 12.476562 20.886719 C 12.253906 20.996094 11.785156 21.007812 11.554688 20.910156 C 11.292969 20.808594 11 20.453125 10.882812 20.082031 C 10.785156 19.785156 10.777344 19.664062 10.777344 18.699219 C 10.777344 17.710938 10.785156 17.617188 10.890625 17.304688 C 11.015625 16.9375 11.292969 16.59375 11.542969 16.488281 C 11.765625 16.394531 12.257812 16.402344 12.476562 16.507812 Z M 12.476562 16.507812 "/>
<path style=" stroke:none;fill-rule:nonzero;fill:rgb(0%,0%,0%);fill-opacity:1;" d="M 15.457031 18.699219 L 15.457031 21.757812 L 19.535156 21.757812 L 19.535156 20.929688 L 16.511719 20.929688 L 16.511719 15.640625 L 15.457031 15.640625 Z M 15.457031 18.699219 "/>
</g>
</svg>
